<svg xmlns="http://www.w3.org/2000/svg" width="256" height="145" viewBox="0 0 256 145" fill="none"><path d="M190.736 43.5803L212.041 6.65326C212.628 5.634 212.786 4.42379 212.482 3.28786C212.178 2.15194 211.435 1.18295 210.418 0.59326C209.399 0.00660557 208.19 -0.151772 207.054 0.152912C205.919 0.457597 204.951 1.20043 204.363 2.21826L182.793 39.6133C166.294 32.0793 147.768 27.8823 128 27.8823C108.232 27.8823 89.703 32.0793 73.208 39.6133L51.637 2.21726C51.0486 1.19953 50.0804 0.456891 48.945 0.152405C47.8095 -0.152081 46.5996 0.00647521 45.581 0.59326C44.5631 1.18255 43.8207 2.15162 43.5166 3.28777C43.2125 4.42392 43.3716 5.63431 43.959 6.65326L65.264 43.5803C28.681 63.4943 3.66 100.56 0 144.35H256C252.337 100.56 227.315 63.4943 190.736 43.5803ZM186.815 86.5303C192.643 86.5303 197.383 91.3593 197.383 97.2943C197.383 103.231 192.643 108.063 186.815 108.063C180.989 108.063 176.249 103.231 176.249 97.2943C176.249 91.3593 180.989 86.5303 186.815 86.5303ZM69.184 86.5303C75.01 86.5303 79.751 91.3593 79.751 97.2943C79.751 103.231 75.01 108.063 69.184 108.063C63.356 108.063 58.617 103.231 58.617 97.2943C58.617 91.3593 63.357 86.5303 69.184 86.5303Z" fill="#3DDC84"></path></svg>