<svg xmlns="http://www.w3.org/2000/svg" width="148" height="169" viewBox="0 0 148 169" fill="none"><path d="M170.714 169.556C165.19 183.761 153.631 187.22 141.082 187.447C127.877 187.853 117.634 192.306 108.196 202.532C96.4671 215.529 87.9152 217.24 75.5084 213.226C2.55922 184.891 -25.7951 103.791 29.1315 75.1573C43.1597 69.5826 55.8198 72.0067 64.1175 68.9378C74.977 61.0081 83.2339 48.7439 96.4417 43.7912C112.327 37.9792 126.691 38.7617 139.331 46.2318C116.37 79.7376 143.016 118.008 177.398 116.365C178.596 134.244 178.022 152.812 170.659 169.704L170.714 169.556ZM59.0987 60.6745C47.1941 38.7386 56.999 11.6362 77.2726 0.125483C92.2277 24.962 74.4724 56.694 59.0987 60.6745Z" fill="#333333"></path></svg>